Coordinates
version=1
nRows=14
nColumns=24
inDegrees=yes

Units are S.I. units (second, meters, Newtons, ...)
Angles are in degrees.

endheader
time	pelvis_tilt	pelvis_list	pelvis_rotation	pelvis_tx	pelvis_ty	pelvis_tz	hip_flexion_r	hip_adduction_r	hip_rotation_r	knee_angle_r	ankle_angle_r	subtalar_angle_r	mtp_angle_r	hip_flexion_l	hip_adduction_l	hip_rotation_l	knee_angle_l	ankle_angle_l	subtalar_angle_l	mtp_angle_l	lumbar_extension	lumbar_bending	lumbar_rotation
      0.70400000	     -2.65396592	     -5.87125966	     -5.79411073	     -0.50689820	      1.00569163	      0.35040700	     15.28079177	     10.24247328	     -0.23620975	    -17.26036577	     -0.44359385	    -14.13857042	     -3.74120609	     24.64602711	    -14.12391689	     -9.48150124	    -77.87358148	      3.25157239	    -11.25283236	      0.63435965	     -9.25597347	      7.23804447	     10.86160185
      0.70816667	     -2.48464245	     -5.69387442	     -6.06419185	     -0.50156187	      1.00716192	      0.35115648	     14.58639687	     10.12882312	      0.21262771	    -16.94418537	     -0.43171959	    -14.24020539	     -3.76236693	     24.96253307	    -14.03013662	     -9.73583978	    -77.54017541	      3.52042804	    -11.10930095	      0.45405143	     -9.45950631	      6.96053801	     11.31424820
      0.71233333	     -2.36423411	     -5.54109098	     -6.24962087	     -0.49618287	      1.00851128	      0.35166307	     13.94008572	     10.00344748	      0.53857131	    -16.60675325	     -0.41647479	    -14.30678524	     -3.79060669	     25.35419356	    -13.90983746	     -9.90091569	    -77.14948484	      3.71726520	    -11.13749417	      0.27929799	     -9.58250777	      6.73195670	     11.52493839
      0.71650000	     -2.26658512	     -5.38884224	     -6.43580755	     -0.49078856	      1.00979824	      0.35216356	     13.32072478	      9.87415138	      0.85741161	    -16.27415476	     -0.38426013	    -14.34312227	     -3.82251377	     25.74668065	    -13.79111202	    -10.07424602	    -76.67999359	      3.91560178	    -11.14697980	      0.11473130	     -9.67982842	      6.51757010	     11.74981793
      0.72066667	     -2.12360493	     -5.24985538	     -6.61283564	     -0.48539454	      1.01113092	      0.35265014	     12.64261896	      9.74872900	      1.17879171	    -15.91713357	     -0.37657234	    -14.41719753	     -3.86065364	     26.06702728	    -13.68140800	    -10.26147972	    -76.13219431	      4.07962441	    -11.20218382	     -0.04640083	     -9.82714940	      6.30858896	     11.95343688
      0.72483333	     -2.01052482	     -5.09549380	     -6.78793869	     -0.47997999	      1.01239193	      0.35312240	     12.00279537	      9.60272249	      1.48627785	    -15.56964396	     -0.35486958	    -14.47047110	     -3.90015153	     26.39512764	    -13.55338588	    -10.46041732	    -75.50429157	      4.21613235	    -11.27082968	     -0.18839700	     -9.93433233	      6.07864998	     12.13472574
      0.72900000	     -1.88232066	     -4.94989553	     -6.95814945	     -0.47455188	      1.01365086	      0.35357683	     11.33925145	      9.45809499	      1.79246434	    -15.20366712	     -0.35768969	    -14.54480511	     -3.94551435	     26.68096654	    -13.43065342	    -10.67069904	    -74.80040456	      4.33625837	    -11.37316120	     -0.32415373	    -10.05575577	      5.86785699	     12.32326514
      0.73316667	     -1.74743479	     -4.79972861	     -7.13244856	     -0.46913159	      1.01488638	      0.35405244	     10.67209751	      9.30592618	      2.10351609	    -14.84151017	     -0.35054626	    -14.62260038	     -3.99435809	     26.93129915	    -13.30572295	    -10.90161793	    -74.01870775	      4.43147155	    -11.47828919	     -0.45066572	    -10.18327755	      5.63871542	     12.49473028
      0.73733333	     -1.59385922	     -4.65692017	     -7.29961085	     -0.46370446	      1.01611764	      0.35452124	      9.98005812	      9.15337451	      2.40870048	    -14.46626869	     -0.35723047	    -14.70902259	     -4.05229263	     27.13597048	    -13.18436023	    -11.14024472	    -73.16600476	      4.50739203	    -11.60629465	     -0.57865308	    -10.33317849	      5.41274567	     12.67821129
      0.74150000	     -1.41936462	     -4.52274850	     -7.48985049	     -0.45826642	      1.01735330	      0.35502261	      9.26269306	      9.00496362	      2.73326232	    -14.08765338	     -0.36827040	    -14.75065767	     -4.13496929	     27.27772651	    -13.08322387	    -11.42145125	    -72.24180350	      4.61074354	    -11.72798622	     -0.73727325	    -10.51040808	      5.19302271	     12.87578999
      0.74566667	     -1.28643204	     -4.38751519	     -7.63340143	     -0.45282093	      1.01846220	      0.35541527	      8.59911348	      8.84673140	      2.99711578	    -13.71941187	     -0.37005596	    -14.86858306	     -4.21036177	     27.46259520	    -12.95373552	    -11.65755531	    -71.25517743	      4.62458897	    -11.88915755	     -0.86538422	    -10.62435098	      4.99254204	     13.00953976
      0.74983333	     -1.11153144	     -4.25223286	     -7.79838837	     -0.44738527	      1.01961648	      0.35587537	      7.88413658	      8.68368482	      3.29873218	    -13.33353980	     -0.39625134	    -14.93080835	     -4.31194598	     27.55918086	    -12.83407659	    -11.93425149	    -70.19229573	      4.67264323	    -11.99892913	     -1.01735754	    -10.80259510	      4.75782685	     13.18945924
      0.75400000	     -0.94761791	     -4.12758151	     -7.94014564	     -0.44193613	      1.02069075	      0.35627885	      7.18484922	      8.52435881	      3.56366004	    -12.95540495	     -0.41000932	    -15.02972477	     -4.42678809	     27.65200761	    -12.71210181	    -12.19421542	    -69.07035677	      4.68175823	    -12.11617249	     -1.17085694	    -10.95831728	      4.54797131	     13.33824026
      0.75816667	     -0.97886270	     -4.04129220	     -7.98691559	     -0.43648760	      1.02130276	      0.35642901	      6.71554811	      8.41061182	      3.69596370	    -12.61260739	     -0.43235206	    -15.14774502	     -4.46196663	     28.00354408	    -12.58462844	    -12.29735051	    -67.96130375	      4.70470190	    -12.20618364	     -1.21299392	    -10.88272166	      4.44587978	     13.38907974
